<svg width="32" height="33" viewBox="0 0 32 33" fill="none" xmlns="http://www.w3.org/2000/svg">
<mask id="mask0_103_2563" style="mask-type:alpha" maskUnits="userSpaceOnUse" x="0" y="0" width="32" height="33">
<rect y="0.741211" width="32" height="32" fill="#D9D9D9"/>
</mask>
<g mask="url(#mask0_103_2563)">
<path d="M14.1333 22.1423L23.5333 12.7423L21.6667 10.8757L14.1333 18.409L10.3333 14.609L8.46667 16.4757L14.1333 22.1423ZM6.66667 28.7423C5.93333 28.7423 5.30556 28.4812 4.78333 27.959C4.26111 27.4368 4 26.809 4 26.0757V7.40902C4 6.67568 4.26111 6.04791 4.78333 5.52568C5.30556 5.00346 5.93333 4.74235 6.66667 4.74235H12.2667C12.5556 3.94235 13.0389 3.29791 13.7167 2.80902C14.3944 2.32013 15.1556 2.07568 16 2.07568C16.8444 2.07568 17.6056 2.32013 18.2833 2.80902C18.9611 3.29791 19.4444 3.94235 19.7333 4.74235H25.3333C26.0667 4.74235 26.6944 5.00346 27.2167 5.52568C27.7389 6.04791 28 6.67568 28 7.40902V26.0757C28 26.809 27.7389 27.4368 27.2167 27.959C26.6944 28.4812 26.0667 28.7423 25.3333 28.7423H6.66667ZM6.66667 26.0757H25.3333V7.40902H6.66667V26.0757ZM16 6.40902C16.2889 6.40902 16.5278 6.31457 16.7167 6.12568C16.9056 5.93679 17 5.69791 17 5.40902C17 5.12013 16.9056 4.88124 16.7167 4.69235C16.5278 4.50346 16.2889 4.40902 16 4.40902C15.7111 4.40902 15.4722 4.50346 15.2833 4.69235C15.0944 4.88124 15 5.12013 15 5.40902C15 5.69791 15.0944 5.93679 15.2833 6.12568C15.4722 6.31457 15.7111 6.40902 16 6.40902Z" fill="#29B475"/>
</g>
</svg>
