<svg width="32" height="33" viewBox="0 0 32 33" fill="none" xmlns="http://www.w3.org/2000/svg">
<mask id="mask0_103_2534" style="mask-type:alpha" maskUnits="userSpaceOnUse" x="0" y="0" width="32" height="33">
<rect y="0.741211" width="32" height="32" fill="#D9D9D9"/>
</mask>
<g mask="url(#mask0_103_2534)">
<path d="M2.66565 10.0745V7.40788C2.66565 6.67454 2.92676 6.04677 3.44898 5.52454C3.9712 5.00232 4.59898 4.74121 5.33232 4.74121H26.6656C27.399 4.74121 28.0268 5.00232 28.549 5.52454C29.0712 6.04677 29.3323 6.67454 29.3323 7.40788V10.0745H26.6656V7.40788H5.33232V10.0745H2.66565ZM10.6656 28.7412V26.0745H5.33232C4.59898 26.0745 3.9712 25.8134 3.44898 25.2912C2.92676 24.769 2.66565 24.1412 2.66565 23.4079V20.7412H5.33232V23.4079H26.6656V20.7412H29.3323V23.4079C29.3323 24.1412 29.0712 24.769 28.549 25.2912C28.0268 25.8134 27.399 26.0745 26.6656 26.0745H21.3323V28.7412H10.6656ZM6.39898 15.4079L9.86565 11.9412L7.99898 10.0745L2.66565 15.4079L7.99898 20.7412L9.86565 18.8745L6.39898 15.4079ZM25.599 15.4079L22.1323 18.8745L23.999 20.7412L29.3323 15.4079L23.999 10.0745L22.1323 11.9412L25.599 15.4079Z" fill="#29B475"/>
</g>
</svg>
