<svg width="28" height="28" viewBox="0 0 28 28" fill="none" xmlns="http://www.w3.org/2000/svg">
<path d="M7.33232 21.7401C6.95454 21.7401 6.63787 21.6123 6.38232 21.3567C6.12676 21.1012 5.99898 20.7845 5.99898 20.4067V17.7401H23.3323V5.74007H25.999C26.3768 5.74007 26.6934 5.86785 26.949 6.1234C27.2045 6.37896 27.3323 6.69563 27.3323 7.07341V27.0734L21.999 21.7401H7.33232ZM0.665649 20.4067V1.74007C0.665649 1.36229 0.793427 1.04563 1.04898 0.790072C1.30454 0.534516 1.62121 0.406738 1.99898 0.406738H19.3323C19.7101 0.406738 20.0268 0.534516 20.2823 0.790072C20.5379 1.04563 20.6656 1.36229 20.6656 1.74007V13.7401C20.6656 14.1178 20.5379 14.4345 20.2823 14.6901C20.0268 14.9456 19.7101 15.0734 19.3323 15.0734H5.99898L0.665649 20.4067ZM17.999 12.4067V3.07341H3.33232V12.4067H17.999Z" fill="#29B475"/>
</svg>
