<svg width="134" height="32" viewBox="0 0 134 32" fill="none" xmlns="http://www.w3.org/2000/svg">
<g clip-path="url(#clip0_103_2388)">
<path fill-rule="evenodd" clip-rule="evenodd" d="M1.03374 14.1488C1.03594 14.6119 1.03814 15.0749 1.04054 15.5379L1.03779 15.5394C1.0336 16.4713 1.02957 17.4032 1.02554 18.335L1.02554 18.3351C1.01747 20.2027 1.00939 22.0701 1.00008 23.9369C0.997282 24.181 1.07131 24.3414 1.30875 24.4701C3.26987 25.5286 5.22771 26.5934 7.18604 27.6584L7.19863 27.6653L7.20521 27.6688L7.20776 27.6702L7.20829 27.6705L7.20881 27.6708L7.20934 27.6711L7.20986 27.6714L7.21039 27.6717L7.21092 27.6719L7.21144 27.6722L7.21802 27.6758C7.80545 27.9953 8.39293 28.3148 8.98055 28.6341L8.98047 28.6361C9.43599 28.8885 9.89173 29.1407 10.3475 29.3928L10.3499 29.3942L10.3524 29.3955C11.8613 30.2304 13.3706 31.0655 14.8732 31.9092C15.14 32.059 15.3398 32.01 15.5772 31.8787C20.0621 29.4146 24.5498 26.9532 29.0402 24.4984C29.2888 24.3618 29.4104 24.2132 29.4076 23.9294C29.3925 22.2656 29.3857 20.6026 29.379 18.9392V18.9391V18.939V18.9389V18.9388V18.9387V18.9386V18.9385V18.9384V18.9383V18.9382V18.9381V18.938L29.379 18.9369L29.379 18.9359L29.3789 18.9348L29.3789 18.9338L29.3789 18.9195L29.3789 18.9184L29.3789 18.9173L29.3789 18.9162L29.3789 18.9153L29.3789 18.9144L29.3789 18.9134C29.3769 18.4348 29.375 17.9561 29.3728 17.4774L29.3736 17.477C29.3722 17.0155 29.3722 16.5553 29.3722 16.0938L29.3682 16.0959L29.3727 16.0898C29.3756 15.8892 29.3766 15.6885 29.3777 15.4876C29.3802 15.0057 29.3828 14.5233 29.4104 14.0421C29.4341 13.6363 29.2973 13.517 28.8657 13.5183C24.4981 13.5315 20.132 13.5342 15.7644 13.5156C15.2462 13.5143 15.1554 13.6973 15.161 14.1323C15.1834 15.7198 15.1931 17.3086 15.1568 18.896C15.1457 19.4159 15.337 19.5167 15.837 19.5101C17.2647 19.4916 18.6924 19.4945 20.1202 19.4974C20.6437 19.4984 21.1672 19.4995 21.6907 19.4995H21.6907C22.3993 19.4995 22.7488 19.4995 22.9231 19.6742C23.0928 19.8442 23.0966 20.1797 23.1042 20.8416L23.1045 20.8413L23.1028 20.8433C21.7804 21.5613 20.4577 22.2789 19.135 22.9965L19.1272 23.0008L19.1193 23.0051C17.7914 23.7255 16.4634 24.446 15.1358 25.1668L15.1333 25.1667L15.1363 25.165C14.5418 24.8377 13.9478 24.5098 13.3537 24.1819L13.3521 24.181C11.5183 23.1689 9.68494 22.157 7.84123 21.1625C7.41942 20.9357 7.27835 20.6824 7.28115 20.2302C7.29244 18.2687 7.28486 16.308 7.27728 14.3469V14.3468V14.3467V14.3466V14.3465V14.3464V14.3463V14.3462V14.346V14.3459V14.3458V14.3457L7.27728 14.345C7.27455 13.6392 7.27182 12.9334 7.26997 12.2275L7.27133 12.2265C7.37373 12.1646 7.47532 12.1015 7.57685 12.0384L7.57693 12.0384C7.80361 11.8976 8.03001 11.757 8.2644 11.6297C10.0458 10.6623 11.8288 9.69801 13.6116 8.73384L13.6121 8.73358L13.6125 8.73333L13.615 8.73201L13.6175 8.73066L13.618 8.73035L13.6186 8.73004L13.6192 8.72973L13.6198 8.72942L13.6203 8.72911L13.6209 8.7288L13.6215 8.72848L13.6221 8.72817L15.2578 7.84341L15.2674 7.84204L15.2637 7.84413L16.8547 8.72021C18.8383 9.81239 20.8213 10.9043 22.8018 11.9978C22.9904 12.1012 23.1803 12.1583 23.3954 12.1583C23.8609 12.1583 24.3263 12.1579 24.7917 12.1576H24.7919H24.7921H24.7923H24.7924H24.7926H24.7928H24.793H24.7932H24.7934C26.1887 12.1566 27.5834 12.1556 28.9781 12.1636C29.3161 12.1649 29.4195 12.0482 29.4139 11.7392C29.3985 10.8347 29.4027 9.92892 29.4125 9.02312C29.4153 8.79634 29.3287 8.66107 29.122 8.54967C27.2629 7.54743 25.4067 6.541 23.5503 5.53444L23.55 5.53424L23.5496 5.53404L23.5492 5.53385L23.5489 5.53365L23.5485 5.53345L23.5481 5.53325L23.5478 5.53306L23.5474 5.53286L23.547 5.53266C22.8425 5.15063 22.1378 4.76857 21.433 4.38672L21.4264 4.39048L21.4271 4.38733C20.9981 4.14919 20.5689 3.91125 20.1398 3.67331L20.1387 3.67271L20.1349 3.67059L20.1344 3.6703L20.1342 3.67023C18.5817 2.80936 17.0293 1.94863 15.4813 1.07978C15.2341 0.940524 15.0539 1.00286 14.8416 1.11956C10.3581 3.581 5.87182 6.0411 1.38414 8.4959C1.1439 8.6272 0.997246 8.7638 1.00004 9.05556C1.01759 10.7535 1.02567 12.4514 1.03374 14.1487L1.03374 14.1488ZM48.5864 19.4815C48.5864 19.74 48.585 19.9985 48.5836 20.257C48.5801 20.8817 48.5766 21.5065 48.5934 22.1312C48.6032 22.5065 48.4747 22.6445 48.0766 22.6193C47.8017 22.6019 47.5257 22.6052 47.2493 22.6085C47.0834 22.6105 46.9172 22.6125 46.7511 22.61C46.7236 22.6095 46.6929 22.6108 46.6608 22.6121L46.6607 22.6121C46.5154 22.6183 46.3443 22.6255 46.3363 22.4734C46.3038 21.8701 46.0429 22.0351 45.8062 22.1849C45.7478 22.2218 45.691 22.2577 45.6393 22.2811C41.1321 24.3354 36.076 21.1339 36.3022 16.3649C36.495 12.3213 40.0259 9.63043 44.4005 10.1755C45.867 10.3585 47.1869 10.8214 48.3197 11.751C48.7331 12.0892 48.8825 12.3704 48.342 12.6993C48.3148 12.7159 48.2923 12.7383 48.2699 12.7606C48.2601 12.7704 48.2502 12.7802 48.2401 12.7894C48.1189 12.8943 48.0031 13.0121 47.8872 13.1298C47.625 13.3964 47.3629 13.6629 47.0403 13.7788C46.685 13.9065 46.4374 13.6694 46.1835 13.4264C46.047 13.2958 45.9088 13.1635 45.7511 13.0852C44.0974 12.2616 41.864 12.4619 40.5944 13.6064C39.3401 14.7376 38.9686 16.894 39.755 18.4656C40.7159 20.3873 43.7105 21.0862 45.522 19.8236C45.7832 19.6419 45.8517 19.4337 45.8475 19.1486C45.8419 18.7987 45.8434 18.4486 45.8449 18.0985V18.0979C45.8469 17.6532 45.8488 17.2084 45.8363 16.7641C45.8265 16.402 45.9285 16.2336 46.3405 16.2628C46.586 16.2796 46.8542 16.2533 47.1196 16.2273C47.6276 16.1775 48.1255 16.1287 48.4356 16.3848C48.7426 16.6379 48.6845 17.1183 48.6256 17.6048C48.5972 17.8398 48.5686 18.0763 48.5809 18.2892C48.5983 18.565 48.5942 18.8415 48.5901 19.1181C48.5882 19.2392 48.5864 19.3603 48.5864 19.4815ZM83.9663 15.9023L83.9654 15.9031L83.965 15.9035L83.9646 15.9038C83.6366 16.1958 83.3086 16.4877 82.9816 16.7805L82.9346 16.7632C82.8935 16.7481 82.8527 16.7332 82.8112 16.7168V16.0696C82.8112 15.5571 82.8106 15.0445 82.8101 14.5319V14.5317V14.5316V14.5315V14.5313V14.5312V14.5311C82.8084 13.078 82.8068 11.6247 82.8182 10.172C82.821 9.7662 82.7372 9.56196 82.2427 9.59777C81.6645 9.64021 81.0793 9.63491 80.4996 9.5991C80.0275 9.56992 79.9158 9.741 79.92 10.1667C79.9355 11.7725 79.9334 13.379 79.9313 14.9851V14.9853V14.9854V14.9855V14.9856V14.9858V14.9859C79.9305 15.5444 79.9298 16.1028 79.9298 16.6611C79.9298 17.1514 79.9307 17.6415 79.9316 18.1316L79.9316 18.1434V18.1435V18.1437V18.1438V18.1439V18.1441V18.1442C79.9341 19.461 79.9366 20.7774 79.9214 22.0946C79.9172 22.5017 80.0401 22.6542 80.4731 22.6184C80.7289 22.5964 80.9881 22.6017 81.2469 22.6071C81.3611 22.6094 81.4753 22.6118 81.5891 22.6118C82.8126 22.6118 82.8852 22.6065 82.7903 21.4752C82.7092 20.5151 83.0584 19.8427 83.8127 19.2552C84.1269 19.0098 84.2624 19.0045 84.5082 19.3043C85.1683 20.1081 85.8464 20.8994 86.5245 21.6907L86.5246 21.6908L86.5246 21.6909L86.5247 21.6909L86.5248 21.691L86.525 21.6913L86.5253 21.6916C86.6691 21.8595 86.813 22.0274 86.9567 22.1954C86.9891 22.2336 87.019 22.2774 87.0492 22.3217C87.1384 22.4527 87.2303 22.5876 87.3995 22.5906C88.2024 22.6033 89.0062 22.6016 89.8623 22.5998C90.1707 22.5992 90.4859 22.5985 90.8103 22.5985C90.4351 22.1454 90.0683 21.7006 89.7071 21.2627L89.7063 21.2617L89.706 21.2615C88.6743 20.0106 87.6879 18.8146 86.6815 17.6332C86.3798 17.2805 86.3812 17.0829 86.7304 16.7739C87.4092 16.1718 88.0587 15.5365 88.6914 14.8893C88.8576 14.7198 89.0337 14.5583 89.2126 14.3943C89.6006 14.0385 90.002 13.6704 90.3452 13.1812C90.0505 13.1812 89.7657 13.1828 89.4879 13.1844H89.4878C88.8358 13.1882 88.222 13.1918 87.609 13.1732C87.183 13.16 86.8729 13.274 86.5614 13.5618C85.7076 14.3523 84.8369 15.1274 83.9663 15.9023ZM57.8777 22.7466C55.7016 22.7055 53.8118 22.0809 52.7782 20.1194C51.8536 18.3675 51.9765 16.5798 53.2154 14.9883C54.5185 13.3147 56.386 12.8134 58.481 13.1131C60.8583 13.4526 62.424 15.0679 62.6559 17.1991C62.7145 17.7455 62.5064 17.8675 62.0148 17.9524C60.0258 18.2932 58.0425 18.6632 56.0605 19.0385C56.0098 19.048 55.9522 19.0512 55.8931 19.0545C55.7113 19.0646 55.5164 19.0754 55.4711 19.2706C55.4286 19.4566 55.5896 19.6057 55.7365 19.7419C55.752 19.7562 55.7673 19.7704 55.7822 19.7844L55.7991 19.8005L55.8147 19.8157C56.7296 20.7215 58.7911 20.8117 60.016 19.9536C60.3764 19.7017 60.5845 19.6765 60.8471 20.0226C60.9568 20.1672 61.0902 20.2947 61.2239 20.4225C61.2876 20.4835 61.3514 20.5445 61.4128 20.6074C62.0818 21.2904 62.0846 21.3117 61.2522 21.8687C60.2423 22.545 59.0956 22.7639 57.8777 22.7466ZM57.3274 15.1422C56.2742 15.1382 55.33 15.8928 55.1149 17.0678C55.0479 17.4299 55.0954 17.6169 55.5549 17.5254C56.8483 17.2694 58.1416 17.0161 59.442 16.7946C59.8722 16.7217 59.861 16.5546 59.685 16.2694C59.2073 15.4963 58.4908 15.1316 57.3274 15.1422ZM67.7271 21.7576C68.8082 22.483 70.0373 22.7695 71.353 22.7376C72.821 22.7376 73.9076 22.4499 74.7806 21.8292C75.5418 21.2868 75.5418 21.2868 74.8839 20.6144C74.8364 20.5656 74.7874 20.5178 74.7384 20.47L74.7383 20.4699L74.7382 20.4698C74.6247 20.359 74.5112 20.2482 74.4146 20.125C74.1269 19.7563 73.9034 19.6463 73.4258 19.9871C72.2483 20.8279 70.184 20.7006 69.2831 19.8174C69.2577 19.7924 69.2304 19.7671 69.2027 19.7415L69.2026 19.7414C69.0551 19.6049 68.8949 19.4566 68.9325 19.2736C68.9734 19.0756 69.1684 19.0665 69.3494 19.058C69.4096 19.0552 69.4682 19.0524 69.5191 19.0428L70.2296 18.9076C71.9748 18.5749 73.7212 18.2421 75.4762 17.9607C76.1117 17.8585 76.1969 17.5973 76.1158 17.0748C75.7066 14.4383 73.4425 12.8296 70.427 13.0564C68.2509 13.2208 66.4282 14.6054 65.8751 16.5151C65.2871 18.5468 65.998 20.5958 67.7271 21.7576ZM69.9726 17.3418L69.9726 17.3418C69.6016 17.4107 69.2306 17.4796 68.8599 17.5495C68.5931 17.5867 68.5624 17.47 68.5722 17.2419C68.6113 16.3109 69.3767 15.4144 70.3516 15.1929C71.4787 14.9369 72.659 15.3706 73.1199 16.2273C73.1345 16.2545 73.1541 16.2846 73.1746 16.3163C73.2775 16.4749 73.4063 16.6733 73.078 16.7419C72.0464 16.9567 71.0095 17.1493 69.9729 17.3418L69.9726 17.3418ZM119.373 22.7367C116.52 22.734 114.525 21.5073 113.828 19.392C112.952 16.7356 114.451 14.0408 117.244 13.253C120.166 12.4281 123.127 13.8219 123.86 16.3682C124.265 17.774 124.251 17.7913 122.755 18.0645L121.635 18.2686L121.633 18.2689L121.633 18.2689L121.633 18.269C120.203 18.5292 118.774 18.7895 117.346 19.0565C116.722 19.1732 116.692 19.2793 117.113 19.7461C117.954 20.6811 120.071 20.8535 121.304 20.006C121.79 19.6718 122.049 19.7288 122.346 20.1466C122.41 20.235 122.49 20.313 122.57 20.391L122.57 20.3911C122.605 20.4242 122.639 20.4574 122.672 20.4914C123.462 21.3057 123.459 21.3853 122.466 21.9794C121.49 22.5629 120.408 22.7765 119.373 22.7367ZM116.87 17.5287C117.218 17.4639 117.575 17.3957 117.938 17.3263L117.939 17.3262L117.939 17.3261C118.818 17.1581 119.732 16.9833 120.651 16.8351C121.265 16.7356 121.22 16.4916 120.958 16.0977C120.438 15.3192 119.237 14.9306 118.178 15.2118C117.258 15.4571 116.493 16.3802 116.459 17.2528C116.451 17.4915 116.525 17.5804 116.87 17.5287ZM93.1122 22.0024C94.3246 22.4971 95.5844 22.7649 96.9644 22.7344C97.97 22.7676 98.9952 22.6204 99.9576 22.1655C101.167 21.5939 101.717 20.6457 101.597 19.3579C101.501 18.3368 100.775 17.5954 99.4673 17.2824C98.8517 17.1357 98.2285 17.0191 97.6051 16.9026L97.605 16.9026C97.2257 16.8317 96.8463 16.7607 96.4686 16.683C96.0719 16.6007 95.6613 16.4774 95.6627 15.9987C95.664 15.5093 96.0663 15.3289 96.4895 15.2348C97.322 15.0504 98.146 15.1446 98.9771 15.2958C99.1504 15.3275 99.324 15.4187 99.4947 15.5082C99.8012 15.6691 100.098 15.8248 100.365 15.622C100.627 15.4238 100.764 15.0776 100.902 14.7316C100.962 14.5799 101.022 14.4283 101.093 14.2892C101.103 14.2693 101.113 14.2481 101.124 14.2295C101.286 13.959 101.21 13.7812 100.9 13.6698C98.7578 12.8993 96.6054 12.6831 94.4754 13.6659C93.2882 14.2149 92.7435 15.2493 92.8916 16.4376C93.0354 17.5981 93.717 18.3036 95.0788 18.6099C95.5971 18.7265 96.1214 18.8177 96.6458 18.9088L96.6459 18.9089C97.0585 18.9806 97.4711 19.0524 97.8806 19.1365C97.9179 19.144 97.9561 19.1513 97.9947 19.1586C98.3883 19.2334 98.8252 19.3164 98.8151 19.8393C98.8039 20.4627 98.2592 20.5422 97.7759 20.6046C96.8177 20.7279 95.8833 20.5886 94.9503 20.3513C94.784 20.3087 94.6169 20.2154 94.4517 20.1231C94.1328 19.9451 93.8212 19.771 93.5368 19.9746C93.2965 20.147 93.1748 20.4615 93.0508 20.7817L93.0508 20.7818C92.9802 20.9641 92.909 21.1481 92.8147 21.3088C92.5913 21.692 92.7561 21.8565 93.1122 22.0024ZM105.148 15.7164C105.148 15.3389 105.149 14.9614 105.149 14.5839V14.5838C105.152 13.5928 105.154 12.602 105.141 11.6118C105.135 11.2166 105.255 11.0548 105.694 11.0761C106.32 11.1066 106.95 11.0999 107.575 11.0787C107.945 11.0668 108.067 11.2034 108.052 11.5416C108.042 11.7401 108.046 11.9395 108.049 12.1389V12.1391C108.054 12.3817 108.058 12.6242 108.039 12.8651C108.003 13.3173 108.204 13.4433 108.647 13.4155C108.893 13.4006 109.141 13.4042 109.389 13.4078C109.606 13.411 109.824 13.4142 110.041 13.4049C110.408 13.389 110.504 13.5309 110.521 13.8677L110.522 13.8909C110.599 15.5231 110.601 15.5558 108.866 15.5096C108.179 15.491 107.993 15.6873 108.033 16.3199C108.07 16.9012 108.063 17.4852 108.056 18.0696C108.051 18.413 108.047 18.7565 108.052 19.0996C108.068 20.3582 108.763 20.8555 109.994 20.4178C110.447 20.2574 110.56 20.3767 110.668 20.7282C110.717 20.8877 110.781 21.0428 110.846 21.1978C110.876 21.2684 110.905 21.3389 110.933 21.4098C111.263 22.2414 111.238 22.305 110.352 22.5557C109.465 22.8063 108.559 22.8196 107.663 22.6313C106.18 22.3183 105.293 21.3913 105.223 19.951C105.175 18.9718 105.186 17.9901 105.198 17.008V17.0078C105.203 16.5774 105.208 16.1468 105.208 15.7164H105.148ZM133.42 13.0475C132.395 13.1483 131.476 13.4639 130.65 14.2623C130.639 14.1946 130.628 14.1398 130.618 14.0935C130.599 14.0065 130.587 13.9499 130.597 13.8962C130.695 13.3114 130.452 13.1005 129.829 13.1642C129.329 13.2152 128.82 13.1927 128.316 13.1704L128.294 13.1695C127.923 13.1536 127.815 13.2942 127.816 13.6323C127.826 16.4837 127.825 19.335 127.818 22.1863C127.816 22.498 127.927 22.6227 128.261 22.6107C128.54 22.6009 128.819 22.6031 129.099 22.6054C129.308 22.6071 129.518 22.6088 129.727 22.6054C130.264 22.5972 130.509 22.6461 130.62 22.5465C130.724 22.453 130.711 22.2283 130.713 21.7023C130.715 21.1848 130.714 20.6676 130.714 20.1505C130.713 19.5185 130.712 18.8865 130.716 18.2541C130.727 16.3749 131.519 15.6004 133.505 15.5593C133.86 15.5527 134.012 15.485 133.996 15.1243C133.97 14.5952 133.963 14.0633 133.997 13.5342C134.023 13.0992 133.829 13.0077 133.42 13.0475Z" fill="#29B475"/>
</g>
<defs>
<clipPath id="clip0_103_2388">
<rect width="134" height="31" fill="white" transform="translate(0 0.5)"/>
</clipPath>
</defs>
</svg>
