<svg width="20" height="21" viewBox="0 0 20 21" fill="none" xmlns="http://www.w3.org/2000/svg">
<mask id="mask0_103_2420" style="mask-type:alpha" maskUnits="userSpaceOnUse" x="0" y="0" width="20" height="21">
<rect y="0.5" width="20" height="20" fill="#D9D9D9"/>
</mask>
<g mask="url(#mask0_103_2420)">
<path d="M7.5 13V8H12.5V13H7.5ZM9.16667 11.3333H10.8333V9.66667H9.16667V11.3333ZM7.5 18V16.3333H5.83333C5.375 16.3333 4.98264 16.1701 4.65625 15.8438C4.32986 15.5174 4.16667 15.125 4.16667 14.6667V13H2.5V11.3333H4.16667V9.66667H2.5V8H4.16667V6.33333C4.16667 5.875 4.32986 5.48264 4.65625 5.15625C4.98264 4.82986 5.375 4.66667 5.83333 4.66667H7.5V3H9.16667V4.66667H10.8333V3H12.5V4.66667H14.1667C14.625 4.66667 15.0174 4.82986 15.3438 5.15625C15.6701 5.48264 15.8333 5.875 15.8333 6.33333V8H17.5V9.66667H15.8333V11.3333H17.5V13H15.8333V14.6667C15.8333 15.125 15.6701 15.5174 15.3438 15.8438C15.0174 16.1701 14.625 16.3333 14.1667 16.3333H12.5V18H10.8333V16.3333H9.16667V18H7.5ZM14.1667 14.6667V6.33333H5.83333V14.6667H14.1667Z" fill="#16252D"/>
</g>
</svg>
