<svg width="32" height="32" viewBox="0 0 32 32" fill="none" xmlns="http://www.w3.org/2000/svg">
<path fill-rule="evenodd" clip-rule="evenodd" d="M8.24998 3.6001C8.66106 3.6001 9.05531 3.7634 9.34599 4.05408C9.63667 4.34476 9.79998 4.73901 9.79998 5.1501V6.7001H11.35C11.7611 6.7001 12.1553 6.8634 12.446 7.15408C12.7367 7.44476 12.9 7.83901 12.9 8.2501C12.9 8.66118 12.7367 9.05543 12.446 9.34611C12.1553 9.63679 11.7611 9.8001 11.35 9.8001H9.79998V11.3501C9.79998 11.7612 9.63667 12.1554 9.34599 12.4461C9.05531 12.7368 8.66106 12.9001 8.24998 12.9001C7.83889 12.9001 7.44464 12.7368 7.15396 12.4461C6.86328 12.1554 6.69998 11.7612 6.69998 11.3501V9.8001H5.14998C4.73889 9.8001 4.34464 9.63679 4.05396 9.34611C3.76328 9.05543 3.59998 8.66118 3.59998 8.2501C3.59998 7.83901 3.76328 7.44476 4.05396 7.15408C4.34464 6.8634 4.73889 6.7001 5.14998 6.7001H6.69998V5.1501C6.69998 4.73901 6.86328 4.34476 7.15396 4.05408C7.44464 3.7634 7.83889 3.6001 8.24998 3.6001ZM8.24998 19.1001C8.66106 19.1001 9.05531 19.2634 9.34599 19.5541C9.63667 19.8448 9.79998 20.239 9.79998 20.6501V22.2001H11.35C11.7611 22.2001 12.1553 22.3634 12.446 22.6541C12.7367 22.9448 12.9 23.339 12.9 23.7501C12.9 24.1612 12.7367 24.5554 12.446 24.8461C12.1553 25.1368 11.7611 25.3001 11.35 25.3001H9.79998V26.8501C9.79998 27.2612 9.63667 27.6554 9.34599 27.9461C9.05531 28.2368 8.66106 28.4001 8.24998 28.4001C7.83889 28.4001 7.44464 28.2368 7.15396 27.9461C6.86328 27.6554 6.69998 27.2612 6.69998 26.8501V25.3001H5.14998C4.73889 25.3001 4.34464 25.1368 4.05396 24.8461C3.76328 24.5554 3.59998 24.1612 3.59998 23.7501C3.59998 23.339 3.76328 22.9448 4.05396 22.6541C4.34464 22.3634 4.73889 22.2001 5.14998 22.2001H6.69998V20.6501C6.69998 20.239 6.86328 19.8448 7.15396 19.5541C7.44464 19.2634 7.83889 19.1001 8.24998 19.1001ZM19.1 3.6001C19.442 3.59999 19.7745 3.71304 20.0457 3.92162C20.3168 4.13021 20.5113 4.42263 20.5988 4.7533L22.4263 11.6601L27.625 14.6578C27.8606 14.7938 28.0562 14.9895 28.1923 15.2251C28.3283 15.4608 28.3999 15.728 28.3999 16.0001C28.3999 16.2722 28.3283 16.5394 28.1923 16.7751C28.0562 17.0107 27.8606 17.2064 27.625 17.3424L22.4263 20.3416L20.5973 27.2469C20.5095 27.5772 20.3151 27.8693 20.0442 28.0777C19.7732 28.2861 19.441 28.3991 19.0992 28.3991C18.7574 28.3991 18.4252 28.2861 18.1543 28.0777C17.8833 27.8693 17.6889 27.5772 17.6011 27.2469L15.7737 20.3401L10.575 17.3424C10.3394 17.2064 10.1437 17.0107 10.0077 16.7751C9.87166 16.5394 9.80004 16.2722 9.80004 16.0001C9.80004 15.728 9.87166 15.4608 10.0077 15.2251C10.1437 14.9895 10.3394 14.7938 10.575 14.6578L15.7737 11.6585L17.6027 4.7533C17.6902 4.42288 17.8844 4.13066 18.1552 3.9221C18.426 3.71353 18.7582 3.60033 19.1 3.6001Z" fill="#EDBA36"/>
</svg>
