<svg width="32" height="33" viewBox="0 0 32 33" fill="none" xmlns="http://www.w3.org/2000/svg">
<mask id="mask0_103_2623" style="mask-type:alpha" maskUnits="userSpaceOnUse" x="0" y="0" width="32" height="33">
<rect y="0.741211" width="32" height="32" fill="#D9D9D9"/>
</mask>
<g mask="url(#mask0_103_2623)">
<path d="M15.999 30.0734C14.1545 30.0734 12.4212 29.7234 10.799 29.0234C9.17676 28.3234 7.76565 27.3734 6.56565 26.1734C5.36565 24.9734 4.41565 23.5623 3.71565 21.9401C3.01565 20.3178 2.66565 18.5845 2.66565 16.7401C2.66565 14.8956 3.01565 13.1623 3.71565 11.5401C4.41565 9.91785 5.36565 8.50674 6.56565 7.30674C7.76565 6.10674 9.17676 5.15674 10.799 4.45674C12.4212 3.75674 14.1545 3.40674 15.999 3.40674C17.8434 3.40674 19.5768 3.75674 21.199 4.45674C22.8212 5.15674 24.2323 6.10674 25.4323 7.30674C26.6323 8.50674 27.5823 9.91785 28.2823 11.5401C28.9823 13.1623 29.3323 14.8956 29.3323 16.7401C29.3323 18.5845 28.9823 20.3178 28.2823 21.9401C27.5823 23.5623 26.6323 24.9734 25.4323 26.1734C24.2323 27.3734 22.8212 28.3234 21.199 29.0234C19.5768 29.7234 17.8434 30.0734 15.999 30.0734ZM15.999 27.4067C18.9768 27.4067 21.499 26.3734 23.5656 24.3067C25.6323 22.2401 26.6656 19.7178 26.6656 16.7401C26.6656 13.7623 25.6323 11.2401 23.5656 9.17341C21.499 7.10674 18.9768 6.0734 15.999 6.0734C13.0212 6.0734 10.499 7.10674 8.43232 9.17341C6.36565 11.2401 5.33232 13.7623 5.33232 16.7401C5.33232 19.7178 6.36565 22.2401 8.43232 24.3067C10.499 26.3734 13.0212 27.4067 15.999 27.4067ZM15.999 24.7401C13.7768 24.7401 11.8879 23.9623 10.3323 22.4067C8.77676 20.8512 7.99898 18.9623 7.99898 16.7401C7.99898 14.5178 8.77676 12.629 10.3323 11.0734C11.8879 9.51785 13.7768 8.74007 15.999 8.74007C18.2212 8.74007 20.1101 9.51785 21.6656 11.0734C23.2212 12.629 23.999 14.5178 23.999 16.7401C23.999 18.9623 23.2212 20.8512 21.6656 22.4067C20.1101 23.9623 18.2212 24.7401 15.999 24.7401ZM15.999 22.0734C17.4656 22.0734 18.7212 21.5512 19.7656 20.5067C20.8101 19.4623 21.3323 18.2067 21.3323 16.7401C21.3323 15.2734 20.8101 14.0178 19.7656 12.9734C18.7212 11.929 17.4656 11.4067 15.999 11.4067C14.5323 11.4067 13.2768 11.929 12.2323 12.9734C11.1879 14.0178 10.6656 15.2734 10.6656 16.7401C10.6656 18.2067 11.1879 19.4623 12.2323 20.5067C13.2768 21.5512 14.5323 22.0734 15.999 22.0734ZM15.999 19.4067C15.2656 19.4067 14.6379 19.1456 14.1156 18.6234C13.5934 18.1012 13.3323 17.4734 13.3323 16.7401C13.3323 16.0067 13.5934 15.379 14.1156 14.8567C14.6379 14.3345 15.2656 14.0734 15.999 14.0734C16.7323 14.0734 17.3601 14.3345 17.8823 14.8567C18.4045 15.379 18.6656 16.0067 18.6656 16.7401C18.6656 17.4734 18.4045 18.1012 17.8823 18.6234C17.3601 19.1456 16.7323 19.4067 15.999 19.4067Z" fill="#29B475"/>
</g>
</svg>
